<svg width="723" height="68" viewBox="0 0 723 68" fill="none" xmlns="http://www.w3.org/2000/svg">
<path d="M24.7791 46.528L0.803063 26.944L24.9231 7.36L29.0991 12.256L10.6671 26.8L29.0991 41.56L24.7791 46.528ZM38.7189 67.048L67.5909 1.6H75.4389L46.6389 67.048H38.7189ZM84.4828 52V1.6H94.1308L102.483 21.832L110.835 1.6H120.483V52H112.923V13.264L102.411 38.248L91.8988 13.264V52H84.4828ZM141.335 52V31.336L124.775 1.6H134.063L145.871 23.416L157.751 1.6H166.535L149.975 31.408V52H141.335ZM176.299 35.008V28.24H201.355V35.008H176.299ZM216.014 52V1.6H233.726C237.134 1.6 240.086 2.272 242.582 3.616C245.126 4.912 247.094 6.736 248.486 9.088C249.878 11.44 250.574 14.176 250.574 17.296C250.574 20.272 249.878 22.936 248.486 25.288C247.094 27.64 245.126 29.488 242.582 30.832C240.086 32.128 237.134 32.776 233.726 32.776H224.654V52H216.014ZM224.654 25.648H232.358C235.43 25.648 237.782 24.88 239.414 23.344C241.046 21.808 241.862 19.768 241.862 17.224C241.862 14.728 241.046 12.712 239.414 11.176C237.782 9.64 235.43 8.872 232.358 8.872H224.654V25.648ZM259.474 52V1.6H276.61C279.97 1.6 282.898 2.248 285.394 3.544C287.938 4.792 289.906 6.568 291.298 8.872C292.738 11.128 293.458 13.768 293.458 16.792C293.458 20.104 292.594 22.96 290.866 25.36C289.138 27.76 286.786 29.512 283.81 30.616L294.826 52H285.538L275.53 31.84H268.114V52H259.474ZM268.114 24.928H275.89C278.578 24.928 280.714 24.208 282.298 22.768C283.93 21.28 284.746 19.336 284.746 16.936C284.746 14.488 283.93 12.544 282.298 11.104C280.714 9.616 278.578 8.872 275.89 8.872H268.114V24.928ZM301.35 52V44.656H314.022V8.944H301.35V1.6H335.334V8.944H322.662V44.656H335.334V52H301.35ZM362.09 52.792C358.538 52.792 355.274 51.784 352.298 49.768C349.322 47.752 346.946 44.824 345.17 40.984C343.394 37.096 342.506 32.368 342.506 26.8C342.506 21.232 343.394 16.528 345.17 12.688C346.946 8.8 349.322 5.848 352.298 3.832C355.274 1.816 358.538 0.807998 362.09 0.807998C365.066 0.807998 367.778 1.456 370.226 2.752C372.722 4 374.858 5.848 376.634 8.296C378.458 10.696 379.778 13.624 380.594 17.08L372.818 19.312C372.098 15.808 370.754 13.144 368.786 11.32C366.866 9.496 364.682 8.584 362.234 8.584C360.17 8.584 358.298 9.256 356.618 10.6C354.986 11.944 353.666 13.984 352.658 16.72C351.698 19.408 351.218 22.768 351.218 26.8C351.218 30.832 351.698 34.216 352.658 36.952C353.666 39.64 354.986 41.656 356.618 43C358.298 44.344 360.17 45.016 362.234 45.016C364.682 45.016 366.866 44.104 368.786 42.28C370.754 40.456 372.098 37.792 372.818 34.288L380.594 36.52C379.778 39.928 378.458 42.856 376.634 45.304C374.858 47.752 372.722 49.624 370.226 50.92C367.778 52.168 365.066 52.792 362.09 52.792ZM389.35 52V1.6H422.326V8.944H397.99V22.984H413.758V30.184H397.99V44.656H422.614V52H389.35ZM435.33 35.008V28.24H460.386V35.008H435.33ZM475.91 52V1.6H484.55V44.656H509.102V52H475.91ZM517.21 52V44.656H529.882V8.944H517.21V1.6H551.194V8.944H538.522V44.656H551.194V52H517.21ZM577.733 52.792C574.181 52.792 570.821 52.192 567.653 50.992C564.485 49.744 561.341 47.872 558.221 45.376L562.757 38.896C565.829 41.344 568.517 43.096 570.821 44.152C573.125 45.16 575.501 45.664 577.949 45.664C579.869 45.664 581.549 45.328 582.989 44.656C584.477 43.984 585.629 43.072 586.445 41.92C587.261 40.768 587.669 39.472 587.669 38.032C587.669 36.256 587.141 34.864 586.085 33.856C585.077 32.848 583.733 32.056 582.053 31.48C580.421 30.856 578.597 30.328 576.581 29.896C574.613 29.464 572.621 28.96 570.605 28.384C568.589 27.808 566.741 27.04 565.061 26.08C563.429 25.072 562.109 23.728 561.101 22.048C560.093 20.32 559.589 18.112 559.589 15.424C559.589 12.496 560.285 9.952 561.677 7.792C563.117 5.584 565.133 3.88 567.725 2.68C570.365 1.432 573.437 0.807998 576.941 0.807998C580.301 0.807998 583.517 1.336 586.589 2.392C589.709 3.4 592.685 4.984 595.517 7.144L591.125 13.552C588.677 11.68 586.253 10.288 583.853 9.376C581.501 8.416 579.125 7.936 576.725 7.936C574.037 7.936 571.877 8.584 570.245 9.88C568.613 11.128 567.797 12.712 567.797 14.632C567.797 16.36 568.301 17.728 569.309 18.736C570.317 19.744 571.661 20.536 573.341 21.112C575.069 21.688 576.941 22.192 578.957 22.624C580.973 23.056 582.989 23.584 585.005 24.208C587.021 24.784 588.869 25.576 590.549 26.584C592.229 27.592 593.573 28.96 594.581 30.688C595.637 32.416 596.165 34.648 596.165 37.384C596.165 40.36 595.397 43.024 593.861 45.376C592.325 47.68 590.165 49.504 587.381 50.848C584.645 52.144 581.429 52.792 577.733 52.792ZM616.225 52V8.944H600.601V1.6H640.489V8.944H624.865V52H616.225ZM643.125 67.048L671.997 1.6H679.845L651.045 67.048H643.125ZM698.249 7.36L722.225 26.944L698.105 46.528L693.929 41.632L712.361 27.088L693.929 12.328L698.249 7.36Z" fill="#2D2D2D"/>
</svg>
